<?xml version="1.0" encoding="utf-8"?>
<!-- Svg Vector Icons : http://www.onlinewebfonts.com/icon -->
<!DOCTYPE svg PUBLIC "-//W3C//DTD SVG 1.1//EN" "http://www.w3.org/Graphics/SVG/1.1/DTD/svg11.dtd">
<svg version="1.1" xmlns="http://www.w3.org/2000/svg" xmlns:xlink="http://www.w3.org/1999/xlink" x="0px" y="0px" viewBox="0 0 1000 1000" enable-background="new 0 0 1000 1000" xml:space="preserve">
<metadata> Svg Vector Icons : http://www.onlinewebfonts.com/icon </metadata>
<g><path d="M809.9,10L878,385.8l-81.2,16.6L728.7,26.6L809.9,10z"/><path d="M553.4,88.3l220.9,311.5l-66.6,49.4L486.8,137.7L553.4,88.3z"/><path d="M356.3,266.9l332.8,187.3L650,527.3L317.2,340L356.3,266.9z"/><path d="M260.5,455.5l376.8,95L617.5,629l-376.8-95L260.5,455.5z"/><path d="M237.1,628.8l386.9,37.1l-7.7,80.6l-386.8-37.1L237.1,628.8z"/><path d="M235.3,779.5h388.6v81H235.3V779.5z"/><path d="M672.5,601.4v323.9H186.7V601.4H122V990h615.3V601.4H672.5z"/></g>
</svg>